<svg width="1528" height="167" viewBox="0 0 1528 167" fill="none" xmlns="http://www.w3.org/2000/svg">
<path d="M1482.95 127.67H1476.97V157.085H1482.95V127.67Z" fill="#BCD9B1"/>
<path d="M1502.7 127.67H1496.62L1511.83 155.689C1512.29 156.55 1513.19 157.085 1514.17 157.085C1515.15 157.085 1516.05 156.55 1516.52 155.689L1531.72 127.67H1502.7Z" fill="#86CBDC"/>
<path d="M1445.7 127.67H1435.41C1432.8 127.67 1430.69 129.787 1430.69 132.398V157.085H1462.39V144.358C1462.39 135.141 1454.92 127.67 1445.7 127.67V127.67Z" fill="#542C7D"/>
<path d="M1363.86 127.67C1362.88 127.67 1361.98 128.205 1361.51 129.066L1346.31 157.085H1381.4L1366.2 129.066C1365.74 128.205 1364.84 127.67 1363.86 127.67Z" fill="#F09092"/>
<path d="M1408.45 129.066C1407.98 128.205 1407.08 127.67 1406.1 127.67C1405.12 127.67 1404.23 128.205 1403.76 129.066L1388.56 157.085H1423.65L1408.45 129.066Z" fill="#F7E4D3"/>
<path d="M1313.62 127.67H1307.55L1322.75 155.689C1323.22 156.55 1324.11 157.085 1325.09 157.085C1326.07 157.085 1326.97 156.55 1327.44 155.689L1342.64 127.67H1313.62Z" fill="#86CBDC"/>
<path d="M1388.41 85.1133H1382.43V114.528H1388.41V85.1133Z" fill="#BCD9B1"/>
<path d="M1458.4 85.1133C1457.42 85.1133 1456.52 85.6484 1456.05 86.5093L1440.85 114.528H1475.94L1460.74 86.5093C1460.27 85.6484 1459.38 85.1133 1458.4 85.1133H1458.4Z" fill="#F09092"/>
<path d="M1502.99 86.5093C1502.52 85.6484 1501.62 85.1133 1500.64 85.1133C1499.66 85.1133 1498.76 85.6484 1498.3 86.5093L1483.09 114.528H1518.19L1502.99 86.5093Z" fill="#F7E4D3"/>
<path d="M1408.16 85.1133H1402.08L1417.29 113.132C1417.75 113.993 1418.65 114.528 1419.63 114.528C1420.61 114.528 1421.51 113.993 1421.98 113.132L1437.18 85.1133H1408.16Z" fill="#86CBDC"/>
<path d="M1351.16 85.1133H1340.87C1338.26 85.1133 1336.15 87.2302 1336.15 89.8415V114.528H1367.85V101.802C1367.85 92.5848 1360.38 85.1133 1351.16 85.1133L1351.16 85.1133Z" fill="#542C7D"/>
<path d="M1482.95 42.5566H1476.97V71.9718H1482.95V42.5566Z" fill="#BCD9B1"/>
<path d="M1502.7 42.5566H1496.62L1511.83 70.5757C1512.29 71.4367 1513.19 71.9718 1514.17 71.9718C1515.15 71.9718 1516.05 71.4367 1516.52 70.5757L1531.72 42.5566H1502.7Z" fill="#86CBDC"/>
<path d="M1445.7 42.5566H1435.41C1432.8 42.5566 1430.69 44.6735 1430.69 47.2849V71.9718H1462.39V59.2451C1462.39 50.0281 1454.92 42.5567 1445.7 42.5567V42.5566Z" fill="#542C7D"/>
<path d="M1363.86 42.5566C1362.88 42.5566 1361.98 43.0918 1361.51 43.9527L1346.31 71.9718H1381.4L1366.2 43.9527C1365.74 43.0918 1364.84 42.5566 1363.86 42.5566Z" fill="#F09092"/>
<path d="M1408.45 43.9527C1407.98 43.0918 1407.08 42.5566 1406.1 42.5566C1405.12 42.5566 1404.23 43.0918 1403.76 43.9527L1388.56 71.9718H1423.65L1408.45 43.9527Z" fill="#F7E4D3"/>
<path d="M1313.62 42.5566H1307.55L1322.75 70.5757C1323.22 71.4367 1324.11 71.9718 1325.09 71.9718C1326.07 71.9718 1326.97 71.4367 1327.44 70.5757L1342.64 42.5566H1313.62Z" fill="#86CBDC"/>
<path d="M1388.41 0H1382.43V29.4152H1388.41V0Z" fill="#BCD9B1"/>
<path d="M1458.4 0C1457.42 0 1456.52 0.535131 1456.05 1.39606L1440.85 29.4152H1475.94L1460.74 1.39606C1460.27 0.535131 1459.38 0 1458.4 0L1458.4 0Z" fill="#F09092"/>
<path d="M1502.99 1.39606C1502.52 0.535131 1501.62 0 1500.64 0C1499.66 0 1498.76 0.535131 1498.3 1.39606L1483.09 29.4152H1518.19L1502.99 1.39606Z" fill="#F7E4D3"/>
<path d="M1408.16 0H1402.08L1417.29 28.0191C1417.75 28.88 1418.65 29.4152 1419.63 29.4152C1420.61 29.4152 1421.51 28.88 1421.98 28.0191L1437.18 0H1408.16Z" fill="#86CBDC"/>
<path d="M1351.16 0H1340.87C1338.26 0 1336.15 2.1169 1336.15 4.72822V29.4152H1367.85V16.6885C1367.85 7.4715 1360.38 1.66811e-05 1351.16 1.66811e-05L1351.16 0Z" fill="#542C7D"/>
<path d="M1293.87 127.67H1287.89V157.085H1293.87V127.67Z" fill="#BCD9B1"/>
<path d="M1313.62 127.67H1307.55L1322.75 155.689C1323.22 156.55 1324.11 157.085 1325.09 157.085C1326.07 157.085 1326.97 156.55 1327.44 155.689L1342.64 127.67H1313.62Z" fill="#86CBDC"/>
<path d="M1256.62 127.67H1246.34C1243.73 127.67 1241.61 129.787 1241.61 132.398V157.085H1273.31V144.358C1273.31 135.141 1265.84 127.67 1256.62 127.67V127.67Z" fill="#542C7D"/>
<path d="M1174.78 127.67C1173.8 127.67 1172.9 128.205 1172.43 129.066L1157.23 157.085H1192.32L1177.12 129.066C1176.66 128.205 1175.76 127.67 1174.78 127.67H1174.78Z" fill="#F09092"/>
<path d="M1219.37 129.066C1218.9 128.205 1218 127.67 1217.03 127.67C1216.05 127.67 1215.15 128.205 1214.68 129.066L1199.48 157.085H1234.57L1219.37 129.066Z" fill="#F7E4D3"/>
<path d="M1124.54 127.67H1118.47L1133.67 155.689C1134.14 156.55 1135.04 157.085 1136.02 157.085C1136.99 157.085 1137.89 156.55 1138.36 155.689L1153.56 127.67H1124.54Z" fill="#86CBDC"/>
<path d="M1199.33 85.1133H1193.35V114.528H1199.33V85.1133Z" fill="#BCD9B1"/>
<path d="M1269.32 85.1133C1268.34 85.1133 1267.44 85.6484 1266.97 86.5093L1251.77 114.528H1286.86L1271.66 86.5093C1271.2 85.6484 1270.3 85.1133 1269.32 85.1133Z" fill="#F09092"/>
<path d="M1313.91 86.5093C1313.44 85.6484 1312.54 85.1133 1311.56 85.1133C1310.58 85.1133 1309.68 85.6484 1309.22 86.5093L1294.02 114.528H1329.11L1313.91 86.5093Z" fill="#F7E4D3"/>
<path d="M1219.08 85.1133H1213.01L1228.21 113.132C1228.67 113.993 1229.57 114.528 1230.55 114.528C1231.53 114.528 1232.43 113.993 1232.9 113.132L1248.1 85.1133H1219.08Z" fill="#86CBDC"/>
<path d="M1162.08 85.1133H1151.79C1149.18 85.1133 1147.07 87.2302 1147.07 89.8415V114.528H1178.77V101.802C1178.77 92.5848 1171.3 85.1133 1162.08 85.1133V85.1133Z" fill="#542C7D"/>
<path d="M1293.87 42.5566H1287.89V71.9718H1293.87V42.5566Z" fill="#BCD9B1"/>
<path d="M1313.62 42.5566H1307.55L1322.75 70.5757C1323.22 71.4367 1324.11 71.9718 1325.09 71.9718C1326.07 71.9718 1326.97 71.4367 1327.44 70.5757L1342.64 42.5566H1313.62Z" fill="#86CBDC"/>
<path d="M1256.62 42.5566H1246.34C1243.73 42.5566 1241.61 44.6735 1241.61 47.2849V71.9718H1273.31V59.2451C1273.31 50.0281 1265.84 42.5567 1256.62 42.5567V42.5566Z" fill="#542C7D"/>
<path d="M1174.78 42.5566C1173.8 42.5566 1172.9 43.0918 1172.43 43.9527L1157.23 71.9718H1192.32L1177.12 43.9527C1176.66 43.0918 1175.76 42.5566 1174.78 42.5566H1174.78Z" fill="#F09092"/>
<path d="M1219.37 43.9527C1218.9 43.0918 1218 42.5566 1217.03 42.5566C1216.05 42.5566 1215.15 43.0918 1214.68 43.9527L1199.48 71.9718H1234.57L1219.37 43.9527Z" fill="#F7E4D3"/>
<path d="M1124.54 42.5566H1118.47L1133.67 70.5757C1134.14 71.4367 1135.04 71.9718 1136.02 71.9718C1136.99 71.9718 1137.89 71.4367 1138.36 70.5757L1153.56 42.5566H1124.54Z" fill="#86CBDC"/>
<path d="M1199.33 0H1193.35V29.4152H1199.33V0Z" fill="#BCD9B1"/>
<path d="M1269.32 0C1268.34 0 1267.44 0.535131 1266.97 1.39606L1251.77 29.4152H1286.86L1271.66 1.39606C1271.2 0.535131 1270.3 0 1269.32 0V0Z" fill="#F09092"/>
<path d="M1313.91 1.39606C1313.44 0.535131 1312.54 0 1311.56 0C1310.58 0 1309.68 0.535131 1309.22 1.39606L1294.02 29.4152H1329.11L1313.91 1.39606Z" fill="#F7E4D3"/>
<path d="M1219.08 0H1213.01L1228.21 28.0191C1228.67 28.88 1229.57 29.4152 1230.55 29.4152C1231.53 29.4152 1232.43 28.88 1232.9 28.0191L1248.1 0H1219.08Z" fill="#86CBDC"/>
<path d="M1162.08 0H1151.79C1149.18 0 1147.07 2.1169 1147.07 4.72822V29.4152H1178.77V16.6885C1178.77 7.4715 1171.3 1.66811e-05 1162.08 1.66811e-05V0Z" fill="#542C7D"/>
<path d="M1104.79 127.67H1098.81V157.085H1104.79V127.67Z" fill="#BCD9B1"/>
<path d="M1124.54 127.67H1118.47L1133.67 155.689C1134.14 156.55 1135.03 157.085 1136.01 157.085C1136.99 157.085 1137.89 156.55 1138.36 155.689L1153.56 127.67H1124.54Z" fill="#86CBDC"/>
<path d="M1067.55 127.67H1057.26C1054.65 127.67 1052.53 129.787 1052.53 132.398V157.085H1084.23V144.358C1084.23 135.141 1076.76 127.67 1067.55 127.67V127.67Z" fill="#542C7D"/>
<path d="M985.699 127.67C984.719 127.67 983.82 128.205 983.354 129.066L968.152 157.085H1003.24L988.044 129.066C987.577 128.205 986.678 127.67 985.699 127.67Z" fill="#F09092"/>
<path d="M1030.29 129.066C1029.82 128.205 1028.92 127.67 1027.95 127.67C1026.97 127.67 1026.07 128.205 1025.6 129.066L1010.4 157.085H1045.49L1030.29 129.066Z" fill="#F7E4D3"/>
<path d="M935.46 127.67H929.389L944.591 155.689C945.057 156.55 945.956 157.085 946.936 157.085C947.915 157.085 948.814 156.55 949.281 155.689L964.482 127.67H935.46Z" fill="#86CBDC"/>
<path d="M1010.25 85.1133H1004.27V114.528H1010.25V85.1133Z" fill="#BCD9B1"/>
<path d="M1080.24 85.1133C1079.26 85.1133 1078.36 85.6484 1077.9 86.5093L1062.69 114.528H1097.79L1082.59 86.5093C1082.12 85.6484 1081.22 85.1133 1080.24 85.1133Z" fill="#F09092"/>
<path d="M1124.83 86.5093C1124.36 85.6484 1123.46 85.1133 1122.48 85.1133C1121.5 85.1133 1120.61 85.6484 1120.14 86.5093L1104.94 114.528H1140.03L1124.83 86.5093Z" fill="#F7E4D3"/>
<path d="M1030 85.1133H1023.93L1039.13 113.132C1039.6 113.993 1040.5 114.528 1041.47 114.528C1042.45 114.528 1043.35 113.993 1043.82 113.132L1059.02 85.1133H1030Z" fill="#86CBDC"/>
<path d="M973.006 85.1133H962.717C960.106 85.1133 957.99 87.2302 957.99 89.8415V114.528H989.689V101.802C989.689 92.5848 982.22 85.1133 973.006 85.1133V85.1133Z" fill="#542C7D"/>
<path d="M1104.79 42.5566H1098.81V71.9718H1104.79V42.5566Z" fill="#BCD9B1"/>
<path d="M1124.54 42.5566H1118.47L1133.67 70.5757C1134.14 71.4367 1135.03 71.9718 1136.01 71.9718C1136.99 71.9718 1137.89 71.4367 1138.36 70.5757L1153.56 42.5566H1124.54Z" fill="#86CBDC"/>
<path d="M1067.55 42.5566H1057.26C1054.65 42.5566 1052.53 44.6735 1052.53 47.2849V71.9718H1084.23V59.2451C1084.23 50.0281 1076.76 42.5567 1067.55 42.5567V42.5566Z" fill="#542C7D"/>
<path d="M985.699 42.5566C984.719 42.5566 983.82 43.0918 983.354 43.9527L968.152 71.9718H1003.24L988.044 43.9527C987.577 43.0918 986.678 42.5566 985.699 42.5566Z" fill="#F09092"/>
<path d="M1030.29 43.9527C1029.82 43.0918 1028.92 42.5566 1027.95 42.5566C1026.97 42.5566 1026.07 43.0918 1025.6 43.9527L1010.4 71.9718H1045.49L1030.29 43.9527Z" fill="#F7E4D3"/>
<path d="M935.46 42.5566H929.389L944.591 70.5757C945.057 71.4367 945.956 71.9718 946.936 71.9718C947.915 71.9718 948.814 71.4367 949.281 70.5757L964.482 42.5566H935.46Z" fill="#86CBDC"/>
<path d="M1010.25 0H1004.27V29.4152H1010.25V0Z" fill="#BCD9B1"/>
<path d="M1080.24 0C1079.26 0 1078.36 0.535131 1077.9 1.39606L1062.69 29.4152H1097.79L1082.59 1.39606C1082.12 0.535131 1081.22 0 1080.24 0V0Z" fill="#F09092"/>
<path d="M1124.83 1.39606C1124.36 0.535131 1123.46 0 1122.48 0C1121.5 0 1120.61 0.535131 1120.14 1.39606L1104.94 29.4152H1140.03L1124.83 1.39606Z" fill="#F7E4D3"/>
<path d="M1030 0H1023.93L1039.13 28.0191C1039.6 28.88 1040.5 29.4152 1041.47 29.4152C1042.45 29.4152 1043.35 28.88 1043.82 28.0191L1059.02 0H1030Z" fill="#86CBDC"/>
<path d="M973.006 0H962.717C960.106 0 957.99 2.1169 957.99 4.72822V29.4152H989.689V16.6885C989.689 7.4715 982.22 1.66811e-05 973.006 1.66811e-05V0Z" fill="#542C7D"/>
<path d="M915.713 127.67H909.732V157.085H915.713V127.67Z" fill="#BCD9B1"/>
<path d="M935.458 127.67H929.386L944.588 155.689C945.055 156.55 945.954 157.085 946.933 157.085C947.913 157.085 948.812 156.55 949.278 155.689L964.479 127.67H935.458Z" fill="#86CBDC"/>
<path d="M878.465 127.67H868.176C865.565 127.67 863.449 129.787 863.449 132.398V157.085H895.148V144.358C895.148 135.141 887.678 127.67 878.465 127.67V127.67Z" fill="#542C7D"/>
<path d="M796.619 127.67C795.638 127.67 794.739 128.205 794.274 129.066L779.072 157.085H814.164L798.964 129.066C798.496 128.205 797.597 127.67 796.619 127.67Z" fill="#F09092"/>
<path d="M841.21 129.066C840.743 128.205 839.844 127.67 838.865 127.67C837.885 127.67 836.986 128.205 836.52 129.066L821.318 157.085H856.411L841.21 129.066Z" fill="#F7E4D3"/>
<path d="M746.38 127.67H740.308L755.51 155.689C755.977 156.55 756.876 157.085 757.855 157.085C758.835 157.085 759.734 156.55 760.2 155.689L775.401 127.67H746.38Z" fill="#86CBDC"/>
<path d="M821.172 85.1133H815.191V114.528H821.172V85.1133Z" fill="#BCD9B1"/>
<path d="M891.158 85.1133C890.178 85.1133 889.279 85.6484 888.813 86.5093L873.611 114.528H908.703L893.503 86.5093C893.036 85.6484 892.137 85.1133 891.158 85.1133Z" fill="#F09092"/>
<path d="M935.747 86.5093C935.281 85.6484 934.382 85.1133 933.402 85.1133C932.423 85.1133 931.524 85.6484 931.057 86.5093L915.855 114.528H950.948L935.747 86.5093Z" fill="#F7E4D3"/>
<path d="M840.917 85.1133H834.846L850.048 113.132C850.514 113.993 851.413 114.528 852.393 114.528C853.372 114.528 854.271 113.993 854.738 113.132L869.939 85.1133H840.917Z" fill="#86CBDC"/>
<path d="M783.924 85.1133H773.635C771.024 85.1133 768.908 87.2302 768.908 89.8415V114.528H800.607V101.802C800.607 92.5848 793.138 85.1133 783.924 85.1133L783.924 85.1133Z" fill="#542C7D"/>
<path d="M915.713 42.5566H909.732V71.9718H915.713V42.5566Z" fill="#BCD9B1"/>
<path d="M935.458 42.5566H929.386L944.588 70.5757C945.055 71.4367 945.954 71.9718 946.933 71.9718C947.913 71.9718 948.812 71.4367 949.278 70.5757L964.479 42.5566H935.458Z" fill="#86CBDC"/>
<path d="M878.465 42.5566H868.176C865.565 42.5566 863.449 44.6735 863.449 47.2849V71.9718H895.148V59.2451C895.148 50.0281 887.678 42.5567 878.465 42.5567V42.5566Z" fill="#542C7D"/>
<path d="M796.619 42.5566C795.638 42.5566 794.739 43.0918 794.274 43.9527L779.072 71.9718H814.164L798.964 43.9527C798.496 43.0918 797.597 42.5566 796.619 42.5566Z" fill="#F09092"/>
<path d="M841.21 43.9527C840.743 43.0918 839.844 42.5566 838.865 42.5566C837.885 42.5566 836.986 43.0918 836.52 43.9527L821.318 71.9718H856.411L841.21 43.9527Z" fill="#F7E4D3"/>
<path d="M746.38 42.5566H740.308L755.51 70.5757C755.977 71.4367 756.876 71.9718 757.855 71.9718C758.835 71.9718 759.734 71.4367 760.2 70.5757L775.401 42.5566H746.38Z" fill="#86CBDC"/>
<path d="M821.172 0H815.191V29.4152H821.172V0Z" fill="#BCD9B1"/>
<path d="M891.158 0C890.178 0 889.279 0.535131 888.813 1.39606L873.611 29.4152H908.703L893.503 1.39606C893.036 0.535131 892.137 0 891.158 0V0Z" fill="#F09092"/>
<path d="M935.747 1.39606C935.281 0.535131 934.382 0 933.402 0C932.423 0 931.524 0.535131 931.057 1.39606L915.855 29.4152H950.948L935.747 1.39606Z" fill="#F7E4D3"/>
<path d="M840.917 0H834.846L850.048 28.0191C850.514 28.88 851.413 29.4152 852.393 29.4152C853.372 29.4152 854.271 28.88 854.738 28.0191L869.939 0H840.917Z" fill="#86CBDC"/>
<path d="M783.924 0H773.635C771.024 0 768.908 2.1169 768.908 4.72822V29.4152H800.607V16.6885C800.607 7.4715 793.138 1.66811e-05 783.924 1.66811e-05L783.924 0Z" fill="#542C7D"/>
<path d="M726.639 127.67H720.658V157.085H726.639V127.67Z" fill="#BCD9B1"/>
<path d="M746.384 127.67H740.312L755.514 155.689C755.981 156.55 756.88 157.085 757.859 157.085C758.839 157.085 759.738 156.55 760.204 155.689L775.405 127.67H746.384Z" fill="#86CBDC"/>
<path d="M689.391 127.67H679.102C676.491 127.67 674.375 129.787 674.375 132.398V157.085H706.074V144.358C706.074 135.141 698.605 127.67 689.391 127.67L689.391 127.67Z" fill="#542C7D"/>
<path d="M607.545 127.67C606.565 127.67 605.666 128.205 605.2 129.066L589.998 157.085H625.09L609.89 129.066C609.423 128.205 608.524 127.67 607.545 127.67H607.545Z" fill="#F09092"/>
<path d="M652.136 129.066C651.669 128.205 650.771 127.67 649.791 127.67C648.811 127.67 647.913 128.205 647.446 129.066L632.244 157.085H667.337L652.136 129.066Z" fill="#F7E4D3"/>
<path d="M557.306 127.67H551.234L566.436 155.689C566.903 156.55 567.802 157.085 568.781 157.085C569.761 157.085 570.66 156.55 571.126 155.689L586.327 127.67H557.306Z" fill="#86CBDC"/>
<path d="M632.098 85.1133H626.117V114.528H632.098V85.1133Z" fill="#BCD9B1"/>
<path d="M702.084 85.1133C701.104 85.1133 700.205 85.6484 699.739 86.5093L684.537 114.528H719.629L704.429 86.5093C703.962 85.6484 703.063 85.1133 702.084 85.1133Z" fill="#F09092"/>
<path d="M746.673 86.5093C746.207 85.6484 745.308 85.1133 744.328 85.1133C743.349 85.1133 742.45 85.6484 741.983 86.5093L726.781 114.528H761.874L746.673 86.5093Z" fill="#F7E4D3"/>
<path d="M651.843 85.1133H645.771L660.973 113.132C661.44 113.993 662.339 114.528 663.318 114.528C664.298 114.528 665.197 113.993 665.663 113.132L680.864 85.1133H651.843Z" fill="#86CBDC"/>
<path d="M594.85 85.1133H584.561C581.95 85.1133 579.834 87.2302 579.834 89.8415V114.528H611.533V101.802C611.533 92.5848 604.064 85.1133 594.85 85.1133V85.1133Z" fill="#542C7D"/>
<path d="M726.639 42.5566H720.658V71.9718H726.639V42.5566Z" fill="#BCD9B1"/>
<path d="M746.384 42.5566H740.312L755.514 70.5757C755.981 71.4367 756.88 71.9718 757.859 71.9718C758.839 71.9718 759.738 71.4367 760.204 70.5757L775.405 42.5566H746.384Z" fill="#86CBDC"/>
<path d="M689.391 42.5566H679.102C676.491 42.5566 674.375 44.6735 674.375 47.2849V71.9718H706.074V59.2451C706.074 50.0281 698.605 42.5567 689.391 42.5567L689.391 42.5566Z" fill="#542C7D"/>
<path d="M607.545 42.5566C606.565 42.5566 605.666 43.0918 605.2 43.9527L589.998 71.9718H625.09L609.89 43.9527C609.423 43.0918 608.524 42.5566 607.545 42.5566H607.545Z" fill="#F09092"/>
<path d="M652.136 43.9527C651.669 43.0918 650.771 42.5566 649.791 42.5566C648.811 42.5566 647.913 43.0918 647.446 43.9527L632.244 71.9718H667.337L652.136 43.9527Z" fill="#F7E4D3"/>
<path d="M557.306 42.5566H551.234L566.436 70.5757C566.903 71.4367 567.802 71.9718 568.781 71.9718C569.761 71.9718 570.66 71.4367 571.126 70.5757L586.327 42.5566H557.306Z" fill="#86CBDC"/>
<path d="M632.098 0H626.117V29.4152H632.098V0Z" fill="#BCD9B1"/>
<path d="M702.084 0C701.104 0 700.205 0.535131 699.739 1.39606L684.537 29.4152H719.629L704.429 1.39606C703.962 0.535131 703.063 0 702.084 0Z" fill="#F09092"/>
<path d="M746.673 1.39606C746.207 0.535131 745.308 0 744.328 0C743.349 0 742.45 0.535131 741.983 1.39606L726.781 29.4152H761.874L746.673 1.39606Z" fill="#F7E4D3"/>
<path d="M651.843 0H645.771L660.973 28.0191C661.44 28.88 662.339 29.4152 663.318 29.4152C664.298 29.4152 665.197 28.88 665.663 28.0191L680.864 0H651.843Z" fill="#86CBDC"/>
<path d="M594.85 0H584.561C581.95 0 579.834 2.1169 579.834 4.72822V29.4152H611.533V16.6885C611.533 7.4715 604.064 1.66811e-05 594.85 1.66811e-05V0Z" fill="#542C7D"/>
<path d="M537.561 127.67H531.58V157.085H537.561V127.67Z" fill="#BCD9B1"/>
<path d="M557.306 127.67H551.234L566.436 155.689C566.903 156.55 567.802 157.085 568.781 157.085C569.761 157.085 570.66 156.55 571.126 155.689L586.327 127.67H557.306Z" fill="#86CBDC"/>
<path d="M500.313 127.67H490.024C487.413 127.67 485.297 129.787 485.297 132.398V157.085H516.996V144.358C516.996 135.141 509.526 127.67 500.313 127.67L500.313 127.67Z" fill="#542C7D"/>
<path d="M418.467 127.67C417.486 127.67 416.588 128.205 416.122 129.066L400.92 157.085H436.012L420.812 129.066C420.344 128.205 419.446 127.67 418.467 127.67Z" fill="#F09092"/>
<path d="M463.058 129.066C462.591 128.205 461.692 127.67 460.713 127.67C459.733 127.67 458.834 128.205 458.368 129.066L443.166 157.085H478.259L463.058 129.066Z" fill="#F7E4D3"/>
<path d="M368.228 127.67H362.156L377.358 155.689C377.825 156.55 378.724 157.085 379.703 157.085C380.683 157.085 381.582 156.55 382.048 155.689L397.249 127.67H368.228Z" fill="#86CBDC"/>
<path d="M443.02 85.1133H437.039V114.528H443.02V85.1133Z" fill="#BCD9B1"/>
<path d="M513.006 85.1133C512.026 85.1133 511.127 85.6484 510.661 86.5093L495.459 114.528H530.551L515.351 86.5093C514.883 85.6484 513.985 85.1133 513.006 85.1133Z" fill="#F09092"/>
<path d="M557.595 86.5093C557.129 85.6484 556.23 85.1133 555.25 85.1133C554.271 85.1133 553.372 85.6484 552.905 86.5093L537.703 114.528H572.796L557.595 86.5093Z" fill="#F7E4D3"/>
<path d="M462.765 85.1133H456.693L471.895 113.132C472.362 113.993 473.261 114.528 474.24 114.528C475.22 114.528 476.119 113.993 476.585 113.132L491.786 85.1133H462.765Z" fill="#86CBDC"/>
<path d="M405.772 85.1133H395.483C392.872 85.1133 390.756 87.2302 390.756 89.8415V114.528H422.455V101.802C422.455 92.5848 414.985 85.1133 405.772 85.1133L405.772 85.1133Z" fill="#542C7D"/>
<path d="M537.561 42.5566H531.58V71.9718H537.561V42.5566Z" fill="#BCD9B1"/>
<path d="M557.306 42.5566H551.234L566.436 70.5757C566.903 71.4367 567.802 71.9718 568.781 71.9718C569.761 71.9718 570.66 71.4367 571.126 70.5757L586.327 42.5566H557.306Z" fill="#86CBDC"/>
<path d="M500.313 42.5566H490.024C487.413 42.5566 485.297 44.6735 485.297 47.2849V71.9718H516.996V59.2451C516.996 50.0281 509.526 42.5567 500.313 42.5567L500.313 42.5566Z" fill="#542C7D"/>
<path d="M418.467 42.5566C417.486 42.5566 416.588 43.0918 416.122 43.9527L400.92 71.9718H436.012L420.812 43.9527C420.344 43.0918 419.446 42.5566 418.467 42.5566Z" fill="#F09092"/>
<path d="M463.058 43.9527C462.591 43.0918 461.692 42.5566 460.713 42.5566C459.733 42.5566 458.834 43.0918 458.368 43.9527L443.166 71.9718H478.259L463.058 43.9527Z" fill="#F7E4D3"/>
<path d="M368.228 42.5566H362.156L377.358 70.5757C377.825 71.4367 378.724 71.9718 379.703 71.9718C380.683 71.9718 381.582 71.4367 382.048 70.5757L397.249 42.5566H368.228Z" fill="#86CBDC"/>
<path d="M443.02 0H437.039V29.4152H443.02V0Z" fill="#BCD9B1"/>
<path d="M513.006 0C512.026 0 511.127 0.535131 510.661 1.39606L495.459 29.4152H530.551L515.351 1.39606C514.883 0.535131 513.985 0 513.006 0Z" fill="#F09092"/>
<path d="M557.595 1.39606C557.129 0.535131 556.23 0 555.25 0C554.271 0 553.372 0.535131 552.905 1.39606L537.703 29.4152H572.796L557.595 1.39606Z" fill="#F7E4D3"/>
<path d="M462.765 0H456.693L471.895 28.0191C472.362 28.88 473.261 29.4152 474.24 29.4152C475.22 29.4152 476.119 28.88 476.585 28.0191L491.786 0H462.765Z" fill="#86CBDC"/>
<path d="M405.772 0H395.483C392.872 0 390.756 2.1169 390.756 4.72822V29.4152H422.455V16.6885C422.455 7.4715 414.985 1.66811e-05 405.772 1.66811e-05L405.772 0Z" fill="#542C7D"/>
<path d="M348.481 127.67H342.5V157.085H348.481V127.67Z" fill="#BCD9B1"/>
<path d="M368.226 127.67H362.154L377.356 155.689C377.823 156.55 378.722 157.085 379.701 157.085C380.681 157.085 381.58 156.55 382.046 155.689L397.247 127.67H368.226Z" fill="#86CBDC"/>
<path d="M311.233 127.67H300.944C298.333 127.67 296.217 129.787 296.217 132.398V157.085H327.916V144.358C327.916 135.141 320.446 127.67 311.233 127.67L311.233 127.67Z" fill="#542C7D"/>
<path d="M229.387 127.67C228.406 127.67 227.507 128.205 227.042 129.066L211.84 157.085H246.932L231.732 129.066C231.264 128.205 230.365 127.67 229.387 127.67H229.387Z" fill="#F09092"/>
<path d="M273.978 129.066C273.511 128.205 272.612 127.67 271.633 127.67C270.653 127.67 269.754 128.205 269.288 129.066L254.086 157.085H289.179L273.978 129.066Z" fill="#F7E4D3"/>
<path d="M179.148 127.67H173.076L188.278 155.689C188.745 156.55 189.643 157.085 190.623 157.085C191.603 157.085 192.501 156.55 192.968 155.689L208.169 127.67H179.148Z" fill="#86CBDC"/>
<path d="M253.942 85.1133H247.961V114.528H253.942V85.1133Z" fill="#BCD9B1"/>
<path d="M323.928 85.1133C322.947 85.1133 322.048 85.6484 321.583 86.5093L306.381 114.528H341.473L326.273 86.5093C325.805 85.6484 324.906 85.1133 323.928 85.1133H323.928Z" fill="#F09092"/>
<path d="M368.517 86.5093C368.05 85.6484 367.151 85.1133 366.172 85.1133C365.192 85.1133 364.293 85.6484 363.827 86.5093L348.625 114.528H383.718L368.517 86.5093Z" fill="#F7E4D3"/>
<path d="M273.687 85.1133H267.615L282.817 113.132C283.284 113.993 284.183 114.528 285.162 114.528C286.142 114.528 287.041 113.993 287.507 113.132L302.708 85.1133H273.687Z" fill="#86CBDC"/>
<path d="M216.694 85.1133H206.405C203.794 85.1133 201.678 87.2302 201.678 89.8415V114.528H233.376V101.802C233.376 92.5848 225.907 85.1133 216.694 85.1133L216.694 85.1133Z" fill="#542C7D"/>
<path d="M348.481 42.5566H342.5V71.9718H348.481V42.5566Z" fill="#BCD9B1"/>
<path d="M368.226 42.5566H362.154L377.356 70.5757C377.823 71.4367 378.722 71.9718 379.701 71.9718C380.681 71.9718 381.58 71.4367 382.046 70.5757L397.247 42.5566H368.226Z" fill="#86CBDC"/>
<path d="M311.233 42.5566H300.944C298.333 42.5566 296.217 44.6735 296.217 47.2849V71.9718H327.916V59.2451C327.916 50.0281 320.446 42.5567 311.233 42.5567L311.233 42.5566Z" fill="#542C7D"/>
<path d="M229.387 42.5566C228.406 42.5566 227.507 43.0918 227.042 43.9527L211.84 71.9718H246.932L231.732 43.9527C231.264 43.0918 230.365 42.5566 229.387 42.5566H229.387Z" fill="#F09092"/>
<path d="M273.978 43.9527C273.511 43.0918 272.612 42.5566 271.633 42.5566C270.653 42.5566 269.754 43.0918 269.288 43.9527L254.086 71.9718H289.179L273.978 43.9527Z" fill="#F7E4D3"/>
<path d="M179.148 42.5566H173.076L188.278 70.5757C188.745 71.4367 189.643 71.9718 190.623 71.9718C191.603 71.9718 192.501 71.4367 192.968 70.5757L208.169 42.5566H179.148Z" fill="#86CBDC"/>
<path d="M253.942 0H247.961V29.4152H253.942V0Z" fill="#BCD9B1"/>
<path d="M323.928 0C322.947 0 322.048 0.535131 321.583 1.39606L306.381 29.4152H341.473L326.273 1.39606C325.805 0.535131 324.906 0 323.928 0Z" fill="#F09092"/>
<path d="M368.517 1.39606C368.05 0.535131 367.151 0 366.172 0C365.192 0 364.293 0.535131 363.827 1.39606L348.625 29.4152H383.718L368.517 1.39606Z" fill="#F7E4D3"/>
<path d="M273.687 0H267.615L282.817 28.0191C283.284 28.88 284.183 29.4152 285.162 29.4152C286.142 29.4152 287.041 28.88 287.507 28.0191L302.708 0H273.687Z" fill="#86CBDC"/>
<path d="M216.694 0H206.405C203.794 0 201.678 2.1169 201.678 4.72822V29.4152H233.376V16.6885C233.376 7.4715 225.907 1.66811e-05 216.694 1.66811e-05L216.694 0Z" fill="#542C7D"/>
<path d="M159.404 127.67H153.424V157.085H159.404V127.67Z" fill="#BCD9B1"/>
<path d="M179.15 127.67H173.078L188.28 155.689C188.747 156.55 189.645 157.085 190.625 157.085C191.605 157.085 192.503 156.55 192.97 155.689L208.171 127.67H179.15Z" fill="#86CBDC"/>
<path d="M122.156 127.67H111.867C109.257 127.67 107.141 129.787 107.141 132.398V157.085H138.839V144.358C138.839 135.141 131.37 127.67 122.156 127.67L122.156 127.67Z" fill="#542C7D"/>
<path d="M40.3105 127.67C39.3302 127.67 38.4313 128.205 37.9655 129.066L22.7637 157.085H57.8558L42.6556 129.066C42.1882 128.205 41.2893 127.67 40.3106 127.67H40.3105Z" fill="#F09092"/>
<path d="M84.9016 129.066C84.4351 128.205 83.5362 127.67 82.5566 127.67C81.5771 127.67 80.6782 128.205 80.2116 129.066L65.0098 157.085H100.103L84.9016 129.066Z" fill="#F7E4D3"/>
<path d="M-9.92822 127.67H-16L-0.798146 155.689C-0.331578 156.55 0.567339 157.085 1.54687 157.085C2.52639 157.085 3.42531 156.55 3.89187 155.689L19.0929 127.67H-9.92822Z" fill="#86CBDC"/>
<path d="M64.8634 85.1133H58.8828V114.528H64.8634V85.1133Z" fill="#BCD9B1"/>
<path d="M134.85 85.1133C133.869 85.1133 132.97 85.6484 132.505 86.5093L117.303 114.528H152.395L137.195 86.5093C136.727 85.6484 135.828 85.1133 134.85 85.1133H134.85Z" fill="#F09092"/>
<path d="M179.439 86.5093C178.972 85.6484 178.073 85.1133 177.094 85.1133C176.114 85.1133 175.215 85.6484 174.749 86.5093L159.547 114.528H194.64L179.439 86.5093Z" fill="#F7E4D3"/>
<path d="M84.6089 85.1133H78.5371L93.739 113.132C94.2055 113.993 95.1044 114.528 96.084 114.528C97.0635 114.528 97.9624 113.993 98.429 113.132L113.63 85.1133H84.6089Z" fill="#86CBDC"/>
<path d="M27.6154 85.1133H17.3265C14.7158 85.1133 12.5996 87.2302 12.5996 89.8415V114.528H44.2984V101.802C44.2984 92.5848 36.8291 85.1133 27.6154 85.1133L27.6154 85.1133Z" fill="#542C7D"/>
<path d="M159.404 42.5566H153.424V71.9718H159.404V42.5566Z" fill="#BCD9B1"/>
<path d="M179.15 42.5566H173.078L188.28 70.5757C188.747 71.4367 189.645 71.9718 190.625 71.9718C191.605 71.9718 192.503 71.4367 192.97 70.5757L208.171 42.5566H179.15Z" fill="#86CBDC"/>
<path d="M122.156 42.5566H111.867C109.257 42.5566 107.141 44.6735 107.141 47.2849V71.9718H138.839V59.2451C138.839 50.0281 131.37 42.5567 122.156 42.5567L122.156 42.5566Z" fill="#542C7D"/>
<path d="M40.3105 42.5566C39.3302 42.5566 38.4313 43.0918 37.9655 43.9527L22.7637 71.9718H57.8558L42.6556 43.9527C42.1882 43.0918 41.2893 42.5566 40.3106 42.5566H40.3105Z" fill="#F09092"/>
<path d="M84.9016 43.9527C84.4351 43.0918 83.5362 42.5566 82.5566 42.5566C81.5771 42.5566 80.6782 43.0918 80.2116 43.9527L65.0098 71.9718H100.103L84.9016 43.9527Z" fill="#F7E4D3"/>
<path d="M-9.92822 42.5566H-16L-0.798146 70.5757C-0.331578 71.4367 0.567339 71.9718 1.54687 71.9718C2.52639 71.9718 3.42531 71.4367 3.89187 70.5757L19.0929 42.5566H-9.92822Z" fill="#86CBDC"/>
<path d="M64.8634 0H58.8828V29.4152H64.8634V0Z" fill="#BCD9B1"/>
<path d="M134.85 0C133.869 0 132.97 0.535131 132.505 1.39606L117.303 29.4152H152.395L137.195 1.39606C136.727 0.535131 135.828 0 134.85 0Z" fill="#F09092"/>
<path d="M179.439 1.39606C178.972 0.535131 178.073 0 177.094 0C176.114 0 175.215 0.535131 174.749 1.39606L159.547 29.4152H194.64L179.439 1.39606Z" fill="#F7E4D3"/>
<path d="M84.6089 0H78.5371L93.739 28.0191C94.2055 28.88 95.1044 29.4152 96.084 29.4152C97.0635 29.4152 97.9624 28.88 98.429 28.0191L113.63 0H84.6089Z" fill="#86CBDC"/>
<path d="M27.6154 0H17.3265C14.7158 0 12.5996 2.1169 12.5996 4.72822V29.4152H44.2984V16.6885C44.2984 7.4715 36.8291 1.66811e-05 27.6154 1.66811e-05L27.6154 0Z" fill="#542C7D"/>
</svg>
