<svg xmlns="http://www.w3.org/2000/svg" width="104.194" height="112.913" viewBox="0 0 104.194 112.913">
  <g id="girl_1_" data-name="girl (1)" transform="translate(-16.096 1)">
    <path id="Path_32325" data-name="Path 32325" d="M153.877,166.626l-.368-1.261a1.272,1.272,0,0,0-1.381-.9l-1.287-9.648a9.647,9.647,0,0,0-5.248-7.354l-4.156-2.078a1.22,1.22,0,0,0-1.646.583l-8.308-3.057a3.859,3.859,0,0,1-2.639-3.661v-6.223l8.312-3.463a11.576,11.576,0,0,0,7.125-10.686v-1.93a5.789,5.789,0,0,0,0-11.577v-3.859c0-5.328-4.319-13.507-9.648-13.507H99.9c-5.328,0-9.648,8.179-9.648,13.507v3.859a5.789,5.789,0,0,0,0,11.577v1.93a11.577,11.577,0,0,0,7.124,10.687l8.312,3.464v6.223a3.859,3.859,0,0,1-2.639,3.661l-8.144,3a1.211,1.211,0,0,0-1.61-.526l-3.79,1.9a9.852,9.852,0,0,0-5.621,7.54L82.6,164.461a1.272,1.272,0,0,0-1.381.9l-.368,1.261a1.273,1.273,0,0,0,.865,1.579l2.75.8v5.822a3.859,3.859,0,0,0,3.859,3.859H146.21a3.859,3.859,0,0,0,3.859-3.859v-5.766l2.942-.858A1.273,1.273,0,0,0,153.877,166.626Z" transform="translate(-49.17 -66.775)" fill="#bbb"/>
    <g id="Group_265392" data-name="Group 265392" transform="translate(33.146 78.474)">
      <path id="Path_32327" data-name="Path 32327" d="M157.154,346.483l-1.541-11.559a9.647,9.647,0,0,0-5.248-7.354l-4.156-2.078a1.23,1.23,0,0,0-1.733.811,23.158,23.158,0,0,1-44.683-.007,1.223,1.223,0,0,0-1.724-.807l-3.79,1.9a9.852,9.852,0,0,0-5.621,7.54L87.087,346.7c5.1,1.755,13.823,4.379,13.823,4.379V358.8h42.45v-7.718Z" transform="translate(-87.087 -325.36)" fill="#6f6f6f"/>
    </g>
    <g id="Group_265393" data-name="Group 265393" transform="translate(33.187 85.17)">
      <path id="Path_32328" data-name="Path 32328" d="M100.992,371.559a11.556,11.556,0,0,0-2.268-6.357l-9.058-12.078a9.4,9.4,0,0,0-.879,2.867l-1.529,11.471Z" transform="translate(-87.257 -353.125)" fill="#1b1b1b"/>
    </g>
    <g id="Group_265394" data-name="Group 265394" transform="translate(31.629 97.674)">
      <path id="Path_32329" data-name="Path 32329" d="M80.85,407.142a1.273,1.273,0,0,0,.865,1.579l14.423,4.207v-1.443a11.533,11.533,0,0,0-.352-2.68L82.8,405.016a1.273,1.273,0,0,0-1.578.865Z" transform="translate(-80.799 -404.965)" fill="#1b1b1b"/>
    </g>
    <g id="Group_265395" data-name="Group 265395" transform="translate(89.466 85.17)">
      <path id="Path_32330" data-name="Path 32330" d="M320.6,371.559a11.556,11.556,0,0,1,2.268-6.357l9.058-12.078a9.4,9.4,0,0,1,.879,2.867l1.529,11.471Z" transform="translate(-320.598 -353.125)" fill="#1b1b1b"/>
    </g>
    <g id="Group_265396" data-name="Group 265396" transform="translate(89.418 97.674)">
      <path id="Path_32331" data-name="Path 32331" d="M335.689,407.142a1.273,1.273,0,0,1-.865,1.579L320.4,412.928v-1.443a11.534,11.534,0,0,1,.352-2.68l12.99-3.789a1.273,1.273,0,0,1,1.578.865Z" transform="translate(-320.4 -404.965)" fill="#1b1b1b"/>
    </g>
    <g id="Group_265397" data-name="Group 265397" transform="translate(16.096 35.344)">
      <path id="Path_32332" data-name="Path 32332" d="M37.225,144c-5.789,0-17.366,1.375-17.366,12.22S16,180.661,16,180.661s19.3-1.295,19.3-15.886c0-13.6,3.859-15.886,3.859-15.886Z" transform="translate(-16 -144)" fill="#434343"/>
    </g>
    <g id="Group_265399" data-name="Group 265399" transform="translate(33.366 32.802)">
      <path id="Path_32334" data-name="Path 32334" d="M94.145,143.889l-2.4-6.617a1.93,1.93,0,1,0-3.628,1.316l2.4,6.617a1.93,1.93,0,0,0,3.628-1.316Z" transform="translate(-88 -136)" fill="#bbb"/>
    </g>
    <g id="Group_265400" data-name="Group 265400" transform="translate(97.136 35.344)">
      <path id="Path_32335" data-name="Path 32335" d="M353.93,144c5.789,0,17.366,1.375,17.366,12.22s3.859,24.441,3.859,24.441-19.3-1.295-19.3-15.886c0-13.6-3.859-15.886-3.859-15.886Z" transform="translate(-352 -144)" fill="#434343"/>
    </g>
    <g id="Group_265402" data-name="Group 265402" transform="translate(96.568 32.802)">
      <path id="Path_32337" data-name="Path 32337" d="M350.159,143.889l2.4-6.617a1.93,1.93,0,1,1,3.628,1.316l-2.4,6.617a1.93,1.93,0,0,1-3.628-1.316Z" transform="translate(-350.043 -136)" fill="#bbb"/>
    </g>
    <path id="Path_32338" data-name="Path 32338" d="M155.815,105.366v-3.859c0-5.328-4.319-13.507-9.648-13.507H111.436c-5.328,0-9.648,8.179-9.648,13.507v3.858a5.789,5.789,0,0,0,0,11.577v1.93a11.577,11.577,0,0,0,7.124,10.687l12.467,5.195a19.294,19.294,0,0,0,7.421,1.484h0a19.3,19.3,0,0,0,7.421-1.484l12.468-5.2a11.576,11.576,0,0,0,7.124-10.686v-1.93a5.789,5.789,0,1,0,0-11.577Z" transform="translate(-60.705 -66.775)" fill="#dbdbdb"/>
    <path id="Path_32343" data-name="Path 32343" d="M138.4,0c-6.271,0-9.648,1.93-9.648,1.93S125.371,0,119.1,0,89.032,12.073,97.876,40.051c0,0,30.872-5.48,30.872-18.826,0,13.346,30.872,18.826,30.872,18.826C168.464,12.073,144.667,0,138.4,0Z" transform="translate(-60.651 -1)" fill="#434343"/>
  </g>
</svg>
