<svg width="55" height="63" viewBox="0 0 55 63" fill="none" xmlns="http://www.w3.org/2000/svg">
<g clip-path="url(#clip0_1_20817)">
<path d="M44.9333 63H2.1806C0.978412 63 0 62.031 0 60.8396V2.16101C0 0.969616 0.978406 0 2.1806 0H44.9333C46.1355 0 47.1134 0.969616 47.1134 2.16101V60.8396C47.1134 62.0309 46.1355 63 44.9333 63V63ZM2.1806 1.76044C1.95797 1.76044 1.7764 1.94038 1.7764 2.16101V60.8396C1.7764 61.0602 1.95797 61.2395 2.1806 61.2395H44.9333C45.156 61.2395 45.337 61.0602 45.337 60.8396V2.16101C45.337 1.94038 45.156 1.76044 44.9333 1.76044H2.1806Z" fill="#542C7D"/>
<path d="M45.041 25.2223C50.5411 25.2223 54.9999 20.8036 54.9999 15.3529C54.9999 9.90211 50.5411 5.4834 45.041 5.4834C39.5408 5.4834 35.082 9.90211 35.082 15.3529C35.082 20.8036 39.5408 25.2223 45.041 25.2223Z" fill="#EF8F91"/>
<path d="M50.2791 12.3174H44.0637C43.35 12.3174 42.7715 12.8907 42.7715 13.5979V17.1065C42.7715 17.8138 43.35 18.3871 44.0637 18.3871H50.2791C50.9928 18.3871 51.5713 17.8138 51.5713 17.1065V13.5979C51.5713 12.8907 50.9928 12.3174 50.2791 12.3174Z" fill="white"/>
<path d="M42.1239 15.0966L38.9561 13.2841C38.7577 13.1706 38.5098 13.3125 38.5098 13.5395V17.1644C38.5098 17.3914 38.7577 17.5333 38.9561 17.4198L42.1239 15.6073C42.3222 15.4938 42.3222 15.2101 42.1239 15.0966Z" fill="white"/>
<path opacity="0.3" d="M7.49966 1.71777H1.77734V62.0963H7.49966V1.71777Z" fill="#542C7D"/>
<g opacity="0.3">
<path d="M19.2705 25.7243C19.2705 21.2835 21.7126 17.6168 24.8943 16.9759C24.4571 16.9108 24.013 16.8662 23.5575 16.8662C18.621 16.8662 14.6191 20.8321 14.6191 25.7243C14.6191 30.6165 18.621 34.5824 23.5575 34.5824C24.013 34.5824 24.4571 34.5379 24.8943 34.4727C21.7126 33.8318 19.2705 30.1651 19.2705 25.7243Z" fill="#542C7D"/>
</g>
<path d="M23.5567 36.3706C17.6336 36.3706 12.8145 31.5947 12.8145 25.7248C12.8145 19.855 17.6336 15.0791 23.5567 15.0791C29.4798 15.0791 34.299 19.855 34.299 25.7248C34.299 31.5947 29.4798 36.3706 23.5567 36.3706ZM23.5567 16.8395C18.6132 16.8395 14.5909 20.8258 14.5909 25.7248C14.5909 30.6239 18.6132 34.6102 23.5567 34.6102C28.5002 34.6102 32.5226 30.6239 32.5226 25.7248C32.5226 20.8258 28.5002 16.8395 23.5567 16.8395Z" fill="#542C7D"/>
<path d="M35.5147 46.552H33.3335V44.391C33.3335 43.905 32.9356 43.5107 32.4453 43.5107C31.9549 43.5107 31.5571 43.905 31.5571 44.391V46.552H29.3765C28.8861 46.552 28.4883 46.9462 28.4883 47.4322C28.4883 47.9181 28.8861 48.3124 29.3765 48.3124H31.5571V50.474C31.5571 50.96 31.9549 51.3542 32.4453 51.3542C32.9356 51.3542 33.3335 50.96 33.3335 50.474V48.3124H35.5147C36.005 48.3124 36.4029 47.9181 36.4029 47.4322C36.4029 46.9462 36.005 46.552 35.5147 46.552Z" fill="#85CADB"/>
<path d="M40.4115 55.8357H6.70265C6.2123 55.8357 5.81445 55.4415 5.81445 54.9555V48.8937C5.81445 42.4301 10.7007 37.052 17.1801 36.3832C17.427 36.3591 17.6768 36.4371 17.863 36.6021C18.0498 36.7666 18.1573 37.0021 18.1602 37.2497C18.1909 40.17 20.612 42.5453 23.5571 42.5453C26.5027 42.5453 28.9233 40.17 28.9533 37.2497C28.9562 37.0021 29.0638 36.7671 29.25 36.6021C29.4368 36.4376 29.6872 36.3614 29.9335 36.3832C36.4134 37.052 41.2997 42.4301 41.2997 48.8937V54.9555C41.2997 55.4415 40.9018 55.8357 40.4115 55.8357H40.4115ZM7.59085 54.0753H39.5233V48.8937C39.5233 43.6381 35.7669 39.2164 30.6488 38.264C30.1237 41.6748 27.1307 44.3058 23.5571 44.3058C19.9835 44.3058 16.9904 41.6748 16.4653 38.264C11.3466 39.2164 7.59086 43.6376 7.59086 48.8937V54.0753H7.59085Z" fill="#EF8F91"/>
<path opacity="0.3" d="M17.2727 37.2588C11.3338 37.8714 6.70312 42.846 6.70312 48.8936V54.9554H14.6192V48.8936C14.6192 45.5911 16.0053 42.6139 18.226 40.4866C17.6342 39.5477 17.2851 38.4445 17.2727 37.2588Z" fill="#EF8F91"/>
</g>
<defs>
<clipPath id="clip0_1_20817">
<rect width="55" height="63" fill="white"/>
</clipPath>
</defs>
</svg>
